# xmcd
#
# Track frame offsets: 
#        150
#        18668
#        33633
#        53968
#        70526
#        93509
#        111014
#        144974
#        164412
#        176764
#        195974
#
# Disc length: 2864 seconds
#
# Revision: 0
# Processed by: cddbd v1.5.1PL2 Copyright (c) Steve Scherf et al.
# Submitted via: ExactAudioCopy v0.95b4
#
DISCID=900b2e0b
DTITLE=Zola Moon - Tales Of Love And Desperation
DYEAR=2003
DGENRE=Blues
TTITLE0=Never Give up On Ya
TTITLE1=Hard Liquor
TTITLE2=How Long
TTITLE3=Bluesville
TTITLE4=Steel Bars
TTITLE5=Talkin' 'Bout You
TTITLE6=Snake Eyes
TTITLE7=Don't Blame It On God
TTITLE8=Sweet Pea
TTITLE9=House Of The Rising Sun
TTITLE10=Mechanical Beast
EXTD=
EXTT0=
EXTT1=
EXTT2=
EXTT3=
EXTT4=
EXTT5=
EXTT6=
EXTT7=
EXTT8=
EXTT9=
EXTT10=
PLAYORDER=
